<svg xmlns="http://www.w3.org/2000/svg" viewBox="0 0 346.2 153.42"><defs><style>.cls-1{font-size:11.17px;fill:#5e5f3f;font-family:Montserrat-SemiBold, Montserrat SemiBold;font-weight:600;letter-spacing:0.42em;}.cls-2{letter-spacing:0.42em;}.cls-3{letter-spacing:0.41em;}.cls-4{letter-spacing:0.39em;}.cls-5,.cls-8{font-size:66.75px;font-family:Lobster1.3;}.cls-10,.cls-5{fill:#a0c126;}.cls-5{letter-spacing:-0.02em;}.cls-6{letter-spacing:-0.03em;}.cls-7{letter-spacing:-0.02em;}.cls-13,.cls-8{fill:#bb4d25;}.cls-8{letter-spacing:-0.01em;}.cls-9{letter-spacing:-0.02em;}.cls-11{fill:#fff;}.cls-12{fill:none;stroke:#fff;stroke-miterlimit:10;stroke-width:2px;}.cls-14{fill:#ffd859;}</style></defs><g id="Layer_2" data-name="Layer 2"><g id="OBJECTS"><text class="cls-1" transform="translate(65.37 124.76)">O<tspan class="cls-2" x="12.39" y="0">R</tspan><tspan x="23.12" y="0">GANIC G</tspan><tspan class="cls-2" x="96.1" y="0">R</tspan><tspan x="106.84" y="0">OCE</tspan><tspan class="cls-3" x="140.58" y="0">R</tspan><tspan x="151.16" y="0">Y S</tspan><tspan class="cls-4" x="179.16" y="0">T</tspan><tspan x="189.1" y="0">ORE</tspan></text><text class="cls-5" transform="translate(40.2 87.54)">E<tspan class="cls-6" x="31.24" y="0">c</tspan><tspan class="cls-7" x="59.4" y="0">o</tspan></text><text class="cls-8" transform="translate(117.45 88.05)">M<tspan class="cls-7" x="52.73" y="0">a</tspan><tspan class="cls-9" x="83.56" y="0">r</tspan><tspan class="cls-7" x="104.32" y="0">ket</tspan></text><path class="cls-10" d="M221.92,43.2c-8.44,9.18-27.41,5.45-27.41,5.45s-5.28-18.6,3.17-27.78,27.42-5.44,27.42-5.44S230.37,34,221.92,43.2Z"/><path class="cls-11" d="M168,40.6h5.08l-1.17,5.48a9.73,9.73,0,0,1-1-.8A11.1,11.1,0,0,1,168,40.6Z"/><path class="cls-10" d="M188.93,47.34s-7.77,2.2-13.91.24l2.2-10.33h-10a32.3,32.3,0,0,1,.19-9.75s12.07-3.42,18,2.07S188.93,47.34,188.93,47.34Z"/><line class="cls-12" x1="194.51" y1="48.65" x2="225.1" y2="15.43"/><line class="cls-12" x1="212.01" y1="29.64" x2="226.89" y2="29.03"/><line class="cls-12" x1="212.01" y1="29.64" x2="211.4" y2="14.77"/><line class="cls-12" x1="201.45" y1="41.11" x2="224.91" y2="40.14"/><line class="cls-12" x1="201.45" y1="41.11" x2="200.48" y2="17.64"/><path class="cls-13" d="M5.26,68.91a71,71,0,0,0,16.61,45.67A66.63,66.63,0,0,1,76.71,10H269.49a66.71,66.71,0,0,1,57.07,32.22,73.93,73.93,0,0,1,4.53,80.12A76.67,76.67,0,0,0,269.49,0H76.71A76.45,76.45,0,0,0,22.59,22.41,71,71,0,0,0,5.26,68.91Z"/><path class="cls-10" d="M313.28,139.64a71.2,71.2,0,0,0,22.26-72,67.53,67.53,0,0,1,.63,9,66.76,66.76,0,0,1-66.68,66.69H76.71a66.21,66.21,0,0,1-18.41-2.61A74.13,74.13,0,0,1,5,49.59,76.67,76.67,0,0,0,76.71,153.42H269.49A76.27,76.27,0,0,0,313.28,139.64Z"/><path class="cls-14" d="M49.88,97.22H306a0,0,0,0,1,0,0v1.72a4,4,0,0,1-4,4H45.89a0,0,0,0,1,0,0V101.2A4,4,0,0,1,49.88,97.22Z"/><line class="cls-12" x1="167.39" y1="27.5" x2="188.93" y2="47.34"/><line class="cls-12" x1="177.28" y1="36.66" x2="176.56" y2="26.18"/><line class="cls-12" x1="183.54" y1="42.44" x2="182.63" y2="27.26"/></g></g></svg>